# This file uses centimeters as units for non-parametric coordinates.

mtllib Cube.mtl
v -108.603424 76.013512 -827.431137
v 39.339013 18.243050 -867.731894
v -38.457103 188.316557 -730.911391
v 109.485333 130.546095 -771.212147
v -32.048442 292.715510 -857.039616
v 115.893994 234.945048 -897.340372
v -102.194763 180.412465 -953.559363
v 45.747673 122.642003 -993.860119
vt 0.375000 0.000000
vt 0.625000 0.000000
vt 0.375000 0.250000
vt 0.625000 0.250000
vt 0.375000 0.500000
vt 0.625000 0.500000
vt 0.375000 0.750000
vt 0.625000 0.750000
vt 0.375000 1.000000
vt 0.625000 1.000000
vt 0.875000 0.000000
vt 0.875000 0.250000
vt 0.125000 0.000000
vt 0.125000 0.250000
vn -0.039112 -0.637141 0.769754
vn -0.039112 -0.637141 0.769754
vn -0.039112 -0.637141 0.769754
vn -0.039112 -0.637141 0.769754
vn 0.428099 0.685380 0.589055
vn 0.428099 0.685380 0.589055
vn 0.428099 0.685380 0.589055
vn 0.428099 0.685380 0.589055
vn 0.039112 0.637141 -0.769754
vn 0.039112 0.637141 -0.769754
vn 0.039112 0.637141 -0.769754
vn 0.039112 0.637141 -0.769754
vn -0.428099 -0.685380 -0.589055
vn -0.428099 -0.685380 -0.589055
vn -0.428099 -0.685380 -0.589055
vn -0.428099 -0.685380 -0.589055
vn 0.902885 -0.352570 -0.245953
vn 0.902885 -0.352570 -0.245953
vn 0.902885 -0.352570 -0.245953
vn 0.902885 -0.352570 -0.245953
vn -0.902885 0.352570 0.245953
vn -0.902885 0.352570 0.245953
vn -0.902885 0.352570 0.245953
vn -0.902885 0.352570 0.245953
s 1
usemtl aiStandardSurface1SG
f 1/1/1 2/2/2 3/3/3
f 3/3/3 2/2/2 4/4/4
s 2
f 3/3/5 4/4/6 5/5/7
f 5/5/7 4/4/6 6/6/8
s 3
f 5/5/9 6/6/10 7/7/11
f 7/7/11 6/6/10 8/8/12
s 4
f 7/7/13 8/8/14 1/9/15
f 1/9/15 8/8/14 2/10/16
s 5
f 2/2/17 8/11/18 4/4/19
f 4/4/19 8/11/18 6/12/20
s 6
f 7/13/21 1/1/22 5/14/23
f 5/14/23 1/1/22 3/3/24
