# File produced by Open Asset Import Library (http://www.assimp.sf.net)
# (assimp v3.1.161429758)

mtllib cube.mtl

# vertex positions
v -108.603424 76.013512 -827.431152
v 39.339012 18.243042 -867.731873
v -38.457104 188.316559 -730.911377
v 109.485329 130.546097 -771.212158
v -32.048439 292.715515 -857.039612
v 115.893997 234.945053 -897.340393
v -102.194756 180.412460 -953.559387
v 45.747673 122.642006 -993.860107

# UV coordinates
vt 0.375000 0.000000
vt 0.625000 0.000000
vt 0.375000 0.250000
vt 0.625000 0.250000
vt 0.375000 0.500000
vt 0.625000 0.500000
vt 0.375000 0.750000
vt 0.625000 0.750000
vt 0.375000 1.000000
vt 0.625000 1.000000
vt 0.875000 0.000000
vt 0.875000 0.250000
vt 0.125000 0.000000
vt 0.125000 0.250000

# vertex normals
vn -0.039112 -0.637141 0.769754
vn 0.428099 0.685380 0.589055
vn 0.039112 0.637141 -0.769754
vn -0.428099 -0.685380 -0.589055
vn 0.902885 -0.352570 -0.245953
vn -0.902885 0.352570 0.245953

# Mesh
g defaultobject
usemtl initialShadingGroup
f 1/1/1 2/2/1 3/3/1
f 3/3/1 2/2/1 4/4/1
f 3/3/2 4/4/2 5/5/2
f 5/5/2 4/4/2 6/6/2
f 5/5/3 6/6/3 7/7/3
f 7/7/3 6/6/3 8/8/3
f 7/7/4 8/8/4 1/9/4
f 1/9/4 8/8/4 2/10/4
f 2/2/5 8/11/5 4/4/5
f 4/4/5 8/11/5 6/12/5
f 7/13/6 1/1/6 5/14/6
f 5/14/6 1/1/6 3/3/6
