# This file uses centimeters as units for non-parametric coordinates.

mtllib temp_third_cube.mtl
g default
v -2030.193237 298.313751 -1029.761841
v -915.932373 -11.248657 -822.975281
v -1661.568359 1124.847534 -1778.816772
v -547.306641 815.273682 -1572.066895
v -1713.539062 349.522217 -2659.892578
v -599.244690 39.910873 -2453.133057
v -2082.127197 -477.092834 -1910.786621
v -967.869263 -786.610107 -1704.041016
vt 0.990204 0.642514
vt 0.616376 0.722790
vt 0.288281 0.929584
vt 0.009766 0.196151
vt 0.701770 0.901773
vt 0.387904 0.257894
vt 0.762243 0.156504
vt 0.397311 0.210925
vt 0.524378 0.020029
vt 0.507306 0.370165
vt 0.210925 0.009766
vt 0.762611 0.470285
vt 0.716358 0.627926
vt 0.407186 0.625471
vt 0.348932 0.662140
vt 0.662492 0.725590
vt 0.196151 0.397311
vt 0.017264 0.534642
vt 0.625769 0.394368
vt 0.245713 0.382932
vt 0.555725 0.990234
vt 0.168975 0.763091
vt 0.975617 0.916361
vt 0.397423 0.611380
vn 0.044171 0.659980 0.749983
vn 0.044190 0.659987 0.749976
vn 0.044190 0.659987 0.749976
vn 0.044209 0.659993 0.749969
vn 0.313776 0.703553 -0.637618
vn 0.313785 0.703545 -0.637624
vn 0.313785 0.703545 -0.637624
vn 0.313794 0.703536 -0.637629
vn -0.044209 -0.659961 -0.749998
vn -0.044196 -0.659981 -0.749981
vn -0.044196 -0.659981 -0.749981
vn -0.044182 -0.660002 -0.749964
vn -0.313741 -0.703519 0.637674
vn -0.313764 -0.703528 0.637652
vn -0.313764 -0.703528 0.637652
vn -0.313788 -0.703538 0.637629
vn 0.948467 -0.263512 0.175988
vn 0.948467 -0.263512 0.175987
vn 0.948467 -0.263512 0.175987
vn 0.948467 -0.263512 0.175987
vn -0.948485 0.263462 -0.175968
vn -0.948475 0.263500 -0.175964
vn -0.948475 0.263500 -0.175964
vn -0.948465 0.263538 -0.175961
s 1
g pCube5 group1
usemtl initialShadingGroup
f 1/15/1 2/2/2 3/3/3
f 3/3/3 2/2/2 4/21/4
s 2
f 3/24/5 4/22/6 5/20/7
f 5/20/7 4/22/6 6/18/8
s 3
f 5/19/9 6/6/10 7/7/11
f 7/7/11 6/6/10 8/9/12
s 4
f 7/14/13 8/10/14 1/16/15
f 1/16/15 8/10/14 2/12/16
s 5
f 2/11/17 8/8/18 4/4/19
f 4/4/19 8/8/18 6/17/20
s 6
f 7/13/21 1/1/22 5/5/23
f 5/5/23 1/1/22 3/23/24
