# This file uses centimeters as units for non-parametric coordinates.

mtllib temp_body.mtl
g default
v -24.946901 0.000000 24.946901
v 24.946901 0.000000 24.946901
v -24.946898 136.189789 24.946898
v 24.946898 136.189789 24.946898
v -24.946898 136.189789 -24.946898
v 24.946898 136.189789 -24.946898
v -24.946901 0.000000 -24.946901
v 24.946901 0.000000 -24.946901
vt 0.257969 0.009766
vt 0.493828 0.009766
vt 0.493828 0.653565
vt 0.257969 0.653565
vt 0.009766 0.009766
vt 0.245625 0.009766
vt 0.245625 0.653565
vt 0.009766 0.653565
vt 0.009766 0.665273
vt 0.245625 0.665273
vt 0.245625 0.901132
vt 0.009766 0.901132
vt 0.754375 0.665273
vt 0.990234 0.665273
vt 0.990234 0.901132
vt 0.754375 0.901132
vt 0.506172 0.009766
vt 0.742031 0.009766
vt 0.742031 0.653565
vt 0.506172 0.653565
vt 0.754375 0.009766
vt 0.990234 0.009766
vt 0.990234 0.653565
vt 0.754375 0.653565
vn 0.000000 0.000000 1.000000
vn 0.000000 0.000000 1.000000
vn 0.000000 0.000000 1.000000
vn 0.000000 0.000000 1.000000
vn 0.000000 1.000000 0.000000
vn 0.000000 1.000000 0.000000
vn 0.000000 1.000000 0.000000
vn 0.000000 1.000000 0.000000
vn 0.000000 0.000000 -1.000000
vn 0.000000 0.000000 -1.000000
vn 0.000000 0.000000 -1.000000
vn 0.000000 0.000000 -1.000000
vn 0.000000 -1.000000 0.000000
vn 0.000000 -1.000000 0.000000
vn 0.000000 -1.000000 0.000000
vn 0.000000 -1.000000 0.000000
vn 1.000000 0.000000 0.000000
vn 1.000000 0.000000 0.000000
vn 1.000000 0.000000 0.000000
vn 1.000000 0.000000 0.000000
vn -1.000000 0.000000 0.000000
vn -1.000000 0.000000 0.000000
vn -1.000000 0.000000 0.000000
vn -1.000000 0.000000 0.000000
s off
g pCube2
usemtl initialShadingGroup
f 1/17/1 2/18/2 4/19/3 3/20/4
f 3/9/5 4/10/6 6/11/7 5/12/8
f 5/21/9 6/22/10 8/23/11 7/24/12
f 7/13/13 8/14/14 2/15/15 1/16/16
f 2/1/17 8/2/18 6/3/19 4/4/20
f 7/5/21 1/6/22 3/7/23 5/8/24
